<svg xmlns="http://www.w3.org/2000/svg" width="17.439" height="20.706" viewBox="0 0 17.439 20.706">
  <g id="Group_1550" data-name="Group 1550" transform="translate(-671.297 -123.924)">
    <rect id="Rectangle_2455" data-name="Rectangle 2455" width="13.117" height="17.271" transform="translate(671.797 126.859)" fill="none" stroke="#707070" stroke-linejoin="round" stroke-width="1"/>
    <rect id="Rectangle_2456" data-name="Rectangle 2456" width="1.564" height="1.564" transform="translate(674.941 129.171)" fill="#707070" stroke="#707070" stroke-width="1"/>
    <rect id="Rectangle_2473" data-name="Rectangle 2473" width="1.564" height="1.564" transform="translate(680.437 129.171)" fill="#707070" stroke="#707070" stroke-width="1"/>
    <rect id="Rectangle_2460" data-name="Rectangle 2460" width="1.564" height="1.564" transform="translate(674.941 132.222)" fill="#707070" stroke="#707070" stroke-width="1"/>
    <rect id="Rectangle_2472" data-name="Rectangle 2472" width="1.564" height="1.564" transform="translate(680.437 132.222)" fill="#707070" stroke="#707070" stroke-width="1"/>
    <rect id="Rectangle_2470" data-name="Rectangle 2470" width="1.564" height="1.564" transform="translate(674.941 135.273)" fill="#707070" stroke="#707070" stroke-width="1"/>
    <rect id="Rectangle_2471" data-name="Rectangle 2471" width="1.564" height="1.564" transform="translate(680.437 135.273)" fill="#707070" stroke="#707070" stroke-width="1"/>
    <g id="Group_1547" data-name="Group 1547" transform="translate(3.231 -14.076)">
      <path id="Path_3169" data-name="Path 3169" d="M14.21,54.957a4.15,4.15,0,1,1-4.149-4.149,4.149,4.149,0,0,1,4.149,4.149" transform="translate(671.295 87.192)" fill="#1b8c8e"/>
      <g id="Group_1546" data-name="Group 1546">
        <path id="Path_3171" data-name="Path 3171" d="M2705.141,7200.841h1.063v2.815h1.031" transform="translate(-2024.908 -7059)" fill="none" stroke="#fff" stroke-linecap="round" stroke-linejoin="round" stroke-width="1.25"/>
        <circle id="Ellipse_29" data-name="Ellipse 29" cx="0.75" cy="0.75" r="0.75" transform="translate(680.529 139)" fill="#fff"/>
      </g>
    </g>
    <rect id="Rectangle_2481" data-name="Rectangle 2481" width="3.701" height="3.983" transform="translate(676.505 140.147)" fill="#707070"/>
  </g>
</svg>
