<svg xmlns="http://www.w3.org/2000/svg" width="16.939" height="20.206" viewBox="671.797 123.924 16.939 20.206"><g data-name="그룹 1550"><path d="M671.797 126.86h13.117v17.27h0-13.117 0v-17.27h0z" stroke-linejoin="round" stroke-linecap="round" stroke="#707070" fill="transparent" data-name="사각형 2455"/><g data-name="사각형 2456"><path d="M674.94 129.171h1.565v1.565h-1.564v-1.565z" fill="#707070" fill-rule="evenodd"/><path d="M674.94 129.171h1.565v1.565h0-1.564 0v-1.565h0z" stroke-linejoin="round" stroke-linecap="round" stroke="#707070" fill="transparent"/></g><g data-name="사각형 2473"><path d="M680.437 129.171H682v1.565h-1.564v-1.565z" fill="#707070" fill-rule="evenodd"/><path d="M680.437 129.171H682v1.565h0-1.564 0v-1.565h0z" stroke-linejoin="round" stroke-linecap="round" stroke="#707070" fill="transparent"/></g><g data-name="사각형 2460"><path d="M674.94 132.222h1.565v1.564h-1.564v-1.564z" fill="#707070" fill-rule="evenodd"/><path d="M674.94 132.222h1.565v1.564h0-1.564 0v-1.564h0z" stroke-linejoin="round" stroke-linecap="round" stroke="#707070" fill="transparent"/></g><g data-name="사각형 2472"><path d="M680.437 132.222H682v1.564h-1.564v-1.564z" fill="#707070" fill-rule="evenodd"/><path d="M680.437 132.222H682v1.564h0-1.564 0v-1.564h0z" stroke-linejoin="round" stroke-linecap="round" stroke="#707070" fill="transparent"/></g><g data-name="사각형 2470"><path d="M674.94 135.273h1.565v1.565h-1.564v-1.565z" fill="#707070" fill-rule="evenodd"/><path d="M674.94 135.273h1.565v1.565h0-1.564 0v-1.565h0z" stroke-linejoin="round" stroke-linecap="round" stroke="#707070" fill="transparent"/></g><g data-name="사각형 2471"><path d="M680.437 135.273H682v1.565h-1.564v-1.565z" fill="#707070" fill-rule="evenodd"/><path d="M680.437 135.273H682v1.565h0-1.564 0v-1.565h0z" stroke-linejoin="round" stroke-linecap="round" stroke="#707070" fill="transparent"/></g><g data-name="그룹 1547"><path d="M688.735 128.073a4.149 4.149 0 1 1-8.297 0 4.149 4.149 0 0 1 8.297 0" fill="#1b8c8e" fill-rule="evenodd" data-name="패스 3169"/><g data-name="그룹 1546"><path d="M683.463 127.765h1.062v2.816h1.032" stroke-linejoin="round" stroke-linecap="round" stroke-width="1.25" stroke="#fff" fill="transparent" data-name="패스 3171"/><path d="M683.76 125.574a.75.75 0 1 1 0 .1z" fill="#fff" fill-rule="evenodd" data-name="타원 29"/></g></g><path d="M676.505 140.147h3.7v3.983h-3.7v-3.983z" fill="#707070" fill-rule="evenodd" data-name="사각형 2481"/></g></svg>