<svg xmlns="http://www.w3.org/2000/svg" width="16.298" height="19" viewBox="671.927 663.247 16.298 19"><g data-name="CompositeLayer"><path d="M688.225 677.91a10.092 10.092 0 0 0-5.163-7.636 4.347 4.347 0 0 0 1.01-2.804 4.001 4.001 0 1 0-7.991 0 4.342 4.342 0 0 0 1.009 2.804 10.092 10.092 0 0 0-5.163 7.635c3.03 4.5 9.136 5.692 13.636 2.662a9.835 9.835 0 0 0 2.662-2.662Z" stroke-linejoin="round" stroke-linecap="round" stroke="#707070" fill="transparent" data-name="패스 3170"/><g data-name="그룹 1548"><path d="M684.152 675.747a4.149 4.149 0 1 1-8.298 0 4.149 4.149 0 0 1 8.298 0" fill="#1b8c8e" fill-rule="evenodd" data-name="패스 3169"/><g data-name="그룹 1546"><path d="M678.88 675.439h1.062v2.815h1.03" stroke-linejoin="round" stroke-linecap="round" stroke-width="1.25" stroke="#fff" fill="transparent" data-name="패스 3171"/><path d="M679.176 673.248a.75.75 0 1 1 0 .1z" fill="#fff" fill-rule="evenodd" data-name="타원 29"/></g></g></g></svg>